<?xml version="1.0" encoding="UTF-8"?>
<svg id="Livello_1" xmlns="http://www.w3.org/2000/svg" version="1.1" xmlns:xlink="http://www.w3.org/1999/xlink" viewBox="0 0 144 144">
  <!-- Generator: Adobe Illustrator 29.8.1, SVG Export Plug-In . SVG Version: 2.1.1 Build 2)  -->
  <defs>
    <style>
      .st0 {
        fill: #eef;
      }

      .st1 {
        fill: none;
      }

      .st2 {
        fill: #00305c;
      }

      .st3 {
        fill: #0c4c9a;
      }

      .st4 {
        clip-path: url(#clippath);
      }
    </style>
    <clipPath id="clippath">
      <rect class="st1" x="-43.47" y="-9.87" width="230.94" height="163.74"/>
    </clipPath>
  </defs>
  <rect class="st0" x="-36.98" y="-7.09" width="218.26" height="168.91"/>
  <polygon class="st2" points="47.39 59.65 47.39 65.52 57.15 65.52 57.15 68.99 47.39 68.99 47.39 77.95 43.26 77.95 43.26 56.16 57.67 56.16 57.67 59.65 47.39 59.65"/>
  <rect class="st2" x="57.6" y="74.02" width="3.65" height="3.93"/>
  <path class="st2" d="M78.45,73.76h-9.4l-1.36,4.18h-4.37l7.24-21.77h6.2l7.35,21.77h-4.29s-1.38-4.18-1.38-4.18ZM77.5,70.72l-3.77-11.35-3.7,11.35h7.47Z"/>
  <rect class="st2" x="86.24" y="74.02" width="3.65" height="3.93"/>
  <g class="st4">
    <g>
      <path class="st2" d="M110.09,62.52h-4.03c-.03-.2-.04-.36-.04-.44-.1-1.22-.37-1.99-.81-2.31s-1.5-.47-3.16-.47c-1.95,0-3.23.18-3.84.55-.6.37-.9,1.12-.9,2.28,0,1.37.24,2.19.74,2.47.49.28,2.1.49,4.84.63,3.25.18,5.34.65,6.29,1.38.95.75,1.43,2.29,1.43,4.64,0,2.89-.56,4.77-1.67,5.6s-3.58,1.27-7.39,1.27c-3.42,0-5.69-.42-6.82-1.24-1.12-.82-1.69-2.51-1.69-5.05v-.8h4.01v.46c.01,1.52.28,2.45.81,2.79s1.98.51,4.35.51c1.85,0,3.03-.2,3.54-.6s.76-1.31.76-2.73c0-1.05-.19-1.75-.58-2.09-.39-.34-1.23-.56-2.51-.63l-2.28-.14c-3.45-.2-5.64-.68-6.61-1.43-.95-.76-1.43-2.37-1.43-4.87s.57-4.23,1.74-5.08c1.15-.85,3.46-1.27,6.91-1.27,3.27,0,5.48.39,6.62,1.17s1.71,2.29,1.71,4.55v.82l.03.03Z"/>
      <path class="st2" d="M127.16,73.76h-9.4l-1.36,4.18h-4.37l7.24-21.77h6.2l7.35,21.77h-4.29s-1.38-4.18-1.38-4.18ZM126.19,70.72l-3.77-11.35-3.7,11.35h7.47Z"/>
      <rect class="st2" x="134.93" y="74.02" width="3.65" height="3.93"/>
      <path class="st3" d="M47.59,81.7h-1.15v-.13c-.03-.34-.1-.57-.23-.66s-.43-.14-.9-.14c-.56,0-.93.05-1.09.15s-.25.32-.25.65c0,.39.06.62.2.7s.6.14,1.38.18c.93.05,1.52.18,1.79.39s.41.65.41,1.32c0,.82-.16,1.36-.48,1.6s-1.01.36-2.1.36c-.98,0-1.62-.11-1.94-.36s-.48-.71-.48-1.43v-.23h1.14v.13c0,.43.08.7.23.8s.57.14,1.24.14c.53,0,.86-.05,1-.16.14-.11.22-.37.22-.77,0-.3-.05-.49-.16-.6s-.36-.15-.71-.18l-.65-.04c-.98-.06-1.61-.19-1.88-.41s-.41-.67-.41-1.38.16-1.2.49-1.45c.33-.24.99-.36,1.97-.36s1.56.11,1.89.33.48.65.48,1.29v.24h0Z"/>
      <path class="st3" d="M52.52,84.89h-2.68l-.38,1.19h-1.24l2.05-6.2h1.76l2.09,6.2h-1.22l-.39-1.19ZM52.26,84.03l-1.07-3.22-1.05,3.22s2.12,0,2.12,0Z"/>
      <path class="st3" d="M57.33,82.79h2.73v1.23c.01.9-.15,1.47-.48,1.74-.34.25-1.09.39-2.26.39-1.07,0-1.78-.18-2.13-.52-.34-.34-.52-1.05-.52-2.1,0-1.36.06-2.21.2-2.57.18-.43.43-.74.79-.87.36-.15.95-.23,1.79-.23,1.1,0,1.81.11,2.13.36.32.23.48.75.48,1.56h-1.19c-.03-.41-.11-.66-.27-.76s-.55-.15-1.18-.15c-.68,0-1.12.09-1.29.25-.18.16-.28.57-.28,1.19v1.42c0,.61.09,1,.27,1.17s.6.25,1.26.25,1.05-.08,1.22-.22c.18-.14.27-.48.27-1v-.25h-1.55v-.86h.03Z"/>
      <polygon class="st3" points="62.29 79.9 62.29 85.03 65.19 85.03 65.19 86.09 61.12 86.09 61.12 79.9 62.29 79.9"/>
      <rect class="st3" x="66" y="79.9" width="1.18" height="6.2"/>
      <path class="st3" d="M72.24,84.89h-2.68l-.38,1.19h-1.24l2.05-6.2h1.76l2.09,6.2h-1.22l-.39-1.19ZM71.96,84.03l-1.07-3.22-1.05,3.22s2.12,0,2.12,0Z"/>
      <path class="st3" d="M80.36,79.9v6.2h-1.99l-1.78-3.4c-.09-.16-.23-.47-.42-.89l-.2-.44-.19-.44h-.05v.41l.04.41v4.36h-1.18v-6.2h1.99l1.61,3.14c.14.28.3.62.49,1.01l.24.51.24.51h.04v-.39l-.03-.41v-4.36h1.18Z"/>
      <path class="st3" d="M84.24,79.84c1.13,0,1.85.19,2.17.56.33.37.48,1.2.48,2.51,0,1.42-.16,2.31-.48,2.69-.33.37-1.12.56-2.36.56-1.13,0-1.85-.18-2.18-.55s-.49-1.17-.49-2.41c0-1.47.16-2.41.48-2.78.33-.38,1.12-.57,2.38-.57M84.13,80.85c-.79,0-1.26.1-1.38.3-.14.2-.2.9-.2,2.1,0,.89.08,1.42.23,1.61s.62.27,1.38.27,1.17-.1,1.31-.3.22-.82.22-1.86-.06-1.65-.2-1.84c-.14-.19-.58-.28-1.36-.28"/>
      <polygon class="st3" points="92.91 80.95 92.91 86.09 91.73 86.09 91.73 80.95 89.94 80.95 89.94 79.9 94.76 79.9 94.76 80.95 92.91 80.95"/>
      <path class="st3" d="M95.56,86.09v-6.2h3.06c.76,0,1.28.13,1.57.39s.43.74.43,1.43c0,.62-.08,1.05-.22,1.28s-.44.39-.89.48v.04c.68.04,1.03.44,1.03,1.2v1.37h-1.18v-1.13c0-.63-.32-.96-.94-.96h-1.7v2.09h-1.18.01ZM96.74,83.02h1.69c.41,0,.67-.08.8-.22s.2-.43.2-.86-.05-.72-.16-.85-.37-.19-.75-.19h-1.78v2.13h0Z"/>
      <path class="st3" d="M105.51,84.89h-2.68l-.38,1.19h-1.24l2.05-6.2h1.76l2.09,6.2h-1.22l-.39-1.19ZM105.25,84.03l-1.07-3.22-1.05,3.22h2.13-.01Z"/>
      <path class="st3" d="M112.47,81.7h-1.15v-.13c-.03-.34-.1-.57-.23-.66s-.43-.14-.9-.14c-.56,0-.93.05-1.09.15s-.25.32-.25.65c0,.39.06.62.2.7s.6.14,1.38.18c.93.05,1.52.18,1.79.39.27.22.41.65.41,1.32,0,.82-.16,1.36-.48,1.6s-1.01.36-2.1.36c-.98,0-1.62-.11-1.94-.36s-.48-.71-.48-1.43v-.23h1.14v.13c0,.43.08.7.23.8s.57.14,1.24.14c.53,0,.86-.05,1-.16.14-.11.22-.37.22-.77,0-.3-.05-.49-.16-.6s-.36-.15-.71-.18l-.65-.04c-.98-.06-1.61-.19-1.88-.41-.27-.22-.41-.67-.41-1.38s.16-1.2.49-1.45c.33-.24.99-.36,1.97-.36.93,0,1.56.11,1.89.33.33.22.48.65.48,1.29v.24h0Z"/>
      <path class="st3" d="M113.66,86.09v-6.2h2.8c.84,0,1.41.15,1.7.44.29.29.44.85.44,1.69s-.14,1.38-.42,1.65-.84.41-1.69.41h-1.65v2h-1.19ZM114.83,83.09h1.34c.53,0,.87-.06,1.01-.19s.22-.42.22-.87c0-.52-.06-.85-.18-.98s-.43-.19-.94-.19h-1.46v2.22h0Z"/>
      <path class="st3" d="M122.13,79.84c1.13,0,1.85.19,2.17.56.33.37.48,1.2.48,2.51,0,1.42-.16,2.31-.48,2.69-.33.37-1.12.56-2.36.56-1.13,0-1.85-.18-2.18-.55s-.49-1.17-.49-2.41c0-1.47.16-2.41.48-2.78.33-.38,1.12-.57,2.38-.57M122.05,80.85c-.79,0-1.26.1-1.38.3-.14.2-.2.9-.2,2.1,0,.89.08,1.42.23,1.61.15.18.61.27,1.38.27s1.17-.1,1.31-.3.22-.82.22-1.86-.06-1.65-.2-1.84c-.14-.19-.58-.28-1.36-.28"/>
      <path class="st3" d="M125.8,86.09v-6.2h3.06c.76,0,1.28.13,1.57.39s.43.74.43,1.43c0,.62-.08,1.05-.22,1.28s-.44.39-.89.48v.04c.68.04,1.03.44,1.03,1.2v1.37h-1.18v-1.13c0-.63-.32-.96-.94-.96h-1.7v2.09h-1.18.01ZM126.98,83.02h1.69c.41,0,.67-.08.8-.22s.2-.43.2-.86-.05-.72-.16-.85-.37-.19-.75-.19h-1.78v2.13h0Z"/>
      <polygon class="st3" points="134.47 80.95 134.47 86.09 133.29 86.09 133.29 80.95 131.5 80.95 131.5 79.9 136.32 79.9 136.32 80.95 134.47 80.95"/>
      <rect class="st3" x="137.13" y="79.9" width="1.18" height="6.2"/>
      <path class="st3" d="M27.01,56.76c-.75-.49-1.62-.76-2.55-.76h-9.03c-1.65,0-3.17.87-3.99,2.31l-4.51,7.82c-.82,1.43-.82,3.18,0,4.62l4.51,7.82c.41.7.98,1.27,1.64,1.66"/>
      <path class="st3" d="M27.01,63.91c.58.39,1.09.91,1.45,1.55l4.51,7.82c.82,1.43.82,3.18,0,4.62l-4.51,7.82c-.82,1.43-2.35,2.31-3.99,2.31h-9.03c-.85,0-1.66-.23-2.36-.65"/>
      <path class="st2" d="M12.36,57.17c.43-.34,1.09-.8,1.98-1.05.52-.15,1.42-.14,3.22-.13.7,0,1.61.04,3.02,0,.27,0,2.14-.05,3.88,0,.1,0,.34,0,.66.05.55.08.95.24,1.12.3.22.09.48.22.77.41-.46.74-.91,1.47-1.36,2.21h-11.32c-2.35,4.15-4.68,8.29-7.02,12.44-.37-.51-.57-.98-.7-1.32-.09-.24-.24-.68-.29-1.29-.01-.23-.04-.66.06-1.2.06-.38.18-.71.28-.94.1-.2.2-.41.32-.61.34-.58.61-1.05.79-1.36,0,0,2.64-4.67,3.74-6.48.06-.1.22-.34.46-.62.16-.19.32-.33.43-.43"/>
      <path class="st2" d="M13.07,87.38c.24.14.55.29.91.42.38.13.74.2,1.01.23h9.84c.23-.03.47-.08.75-.14.2-.05.39-.11.57-.18.22-.11.44-.22.66-.33l.43-.29c.13-.11.25-.24.38-.36.1-.1.22-.2.32-.3.2-.29.39-.57.6-.86l4.64-8.09.23-.63.18-.89v-1.2l-.3-.84c-.13-.27-.27-.53-.41-.81-.48-.94-.99-1.8-1.5-2.59-.93-1.61-1.85-3.21-2.78-4.82-.08-.15-.16-.3-.28-.48-.14-.2-.27-.37-.39-.52-.11-.13-.24-.25-.38-.38-.19-.16-.37-.3-.53-.41-.6.99-1.18,1.97-1.78,2.95,1.79,3.03,3.58,6.07,5.36,9.1l-5.08,8.91c-3.64-.03-7.29-.05-10.93-.08-.51.86-1.01,1.72-1.51,2.57"/>
    </g>
  </g>
</svg>