<?xml version="1.0" encoding="UTF-8"?>
<svg id="Livello_1" xmlns="http://www.w3.org/2000/svg" version="1.1" xmlns:xlink="http://www.w3.org/1999/xlink" viewBox="0 0 144 144">
  <!-- Generator: Adobe Illustrator 29.8.1, SVG Export Plug-In . SVG Version: 2.1.1 Build 2)  -->
  <defs>
    <style>
      .st0 {
        fill: #18181b;
      }

      .st1 {
        fill: #fff;
      }

      .st2 {
        fill: none;
      }

      .st3 {
        clip-path: url(#clippath);
      }
    </style>
    <clipPath id="clippath">
      <rect class="st2" x="-27.31" y="1.58" width="198.63" height="140.83"/>
    </clipPath>
  </defs>
  <rect class="st0" x="-19.61" y="-13.59" width="218.26" height="168.91"/>
  <g>
    <polygon class="st1" points="50.83 61.38 50.83 66.43 59.23 66.43 59.23 69.42 50.83 69.42 50.83 77.11 47.28 77.11 47.28 58.38 59.68 58.38 59.68 61.38 50.83 61.38"/>
    <rect class="st1" x="59.61" y="73.73" width="3.14" height="3.38"/>
    <path class="st1" d="M77.55,73.52h-8.08l-1.17,3.6h-3.76l6.23-18.72h5.33l6.33,18.72h-3.69s-1.19-3.6-1.19-3.6ZM76.73,70.9l-3.24-9.76-3.18,9.76h6.42Z"/>
    <rect class="st1" x="84.25" y="73.73" width="3.14" height="3.38"/>
    <g class="st3">
      <g>
        <path class="st1" d="M104.76,63.84h-3.47c-.02-.17-.03-.31-.03-.38-.09-1.05-.32-1.71-.7-1.98s-1.29-.4-2.72-.4c-1.68,0-2.78.15-3.3.47-.51.32-.77.96-.77,1.96,0,1.18.21,1.89.63,2.13.43.24,1.81.43,4.17.55,2.79.15,4.59.56,5.41,1.19.82.64,1.23,1.97,1.23,3.99,0,2.49-.48,4.1-1.44,4.82s-3.08,1.09-6.36,1.09c-2.94,0-4.9-.36-5.87-1.07-.96-.71-1.45-2.16-1.45-4.34v-.69h3.45v.39c.01,1.31.24,2.1.7,2.4s1.7.44,3.74.44c1.59,0,2.61-.17,3.04-.51s.65-1.12.65-2.34c0-.91-.16-1.5-.5-1.8-.34-.29-1.06-.48-2.16-.55l-1.96-.12c-2.97-.17-4.85-.59-5.68-1.23-.82-.65-1.23-2.04-1.23-4.19s.49-3.64,1.49-4.37c.99-.73,2.98-1.09,5.94-1.09,2.81,0,4.71.34,5.69,1s1.47,1.97,1.47,3.91v.71l.02.02Z"/>
        <path class="st1" d="M119.44,73.52h-8.08l-1.17,3.6h-3.76l6.23-18.72h5.33l6.33,18.72h-3.69s-1.19-3.6-1.19-3.6ZM118.61,70.9l-3.24-9.76-3.18,9.76h6.42Z"/>
        <rect class="st1" x="126.12" y="73.73" width="3.14" height="3.38"/>
        <path class="st1" d="M51.01,80.34h-.99v-.11c-.02-.29-.09-.49-.2-.57s-.37-.12-.77-.12c-.48,0-.8.04-.94.13s-.22.27-.22.56c0,.34.05.53.17.6s.51.12,1.19.15c.8.04,1.31.15,1.54.34s.35.56.35,1.13c0,.71-.14,1.17-.41,1.37s-.87.31-1.81.31c-.84,0-1.4-.1-1.67-.31s-.41-.61-.41-1.23v-.2h.98v.11c0,.37.07.6.2.69s.49.12,1.07.12c.46,0,.74-.04.86-.14.12-.1.19-.32.19-.67,0-.26-.04-.43-.14-.51s-.31-.13-.61-.15l-.56-.03c-.84-.05-1.38-.16-1.61-.35s-.35-.58-.35-1.19.14-1.04.43-1.24c.28-.21.85-.31,1.69-.31s1.34.1,1.62.28.41.56.41,1.11v.21h0Z"/>
        <path class="st1" d="M55.25,83.09h-2.3l-.33,1.03h-1.07l1.77-5.33h1.52l1.8,5.33h-1.05l-.34-1.03ZM55.02,82.35l-.92-2.77-.91,2.77s1.82,0,1.82,0Z"/>
        <path class="st1" d="M59.38,81.28h2.34v1.06c.01.77-.13,1.27-.41,1.49-.29.22-.94.34-1.94.34-.92,0-1.53-.15-1.83-.45-.29-.29-.45-.91-.45-1.81,0-1.17.05-1.9.17-2.21.15-.37.37-.63.68-.75.31-.13.82-.2,1.54-.2.95,0,1.56.1,1.83.31.27.2.41.64.41,1.34h-1.03c-.02-.35-.1-.57-.23-.65s-.47-.13-1.01-.13c-.59,0-.96.08-1.11.22-.15.14-.24.49-.24,1.03v1.22c0,.52.08.86.23,1s.51.22,1.08.22.91-.07,1.05-.19c.15-.12.23-.41.23-.86v-.22h-1.33v-.74h.02Z"/>
        <polygon class="st1" points="63.65 78.79 63.65 83.21 66.14 83.21 66.14 84.12 62.64 84.12 62.64 78.79 63.65 78.79"/>
        <rect class="st1" x="66.84" y="78.79" width="1.01" height="5.33"/>
        <path class="st1" d="M72.21,83.09h-2.3l-.33,1.03h-1.07l1.77-5.33h1.52l1.8,5.33h-1.05l-.34-1.03ZM71.97,82.35l-.92-2.77-.91,2.77s1.82,0,1.82,0Z"/>
        <path class="st1" d="M79.19,78.79v5.33h-1.71l-1.53-2.92c-.08-.14-.2-.4-.36-.76l-.17-.38-.16-.38h-.04v.35l.03.35v3.75h-1.01v-5.33h1.71l1.38,2.7c.12.24.26.53.43.87l.21.44.21.44h.03v-.34l-.02-.35v-3.75h1.01Z"/>
        <path class="st1" d="M82.52,78.74c.97,0,1.59.16,1.86.48.28.32.41,1.04.41,2.16,0,1.22-.14,1.98-.41,2.31-.28.32-.96.48-2.03.48-.97,0-1.59-.15-1.88-.47s-.43-1-.43-2.07c0-1.27.14-2.07.41-2.39.28-.33.96-.49,2.05-.49M82.44,79.61c-.68,0-1.08.09-1.19.26-.12.17-.17.77-.17,1.81,0,.76.07,1.22.2,1.38s.53.23,1.19.23,1-.09,1.12-.26.19-.71.19-1.6-.05-1.42-.17-1.58c-.12-.16-.5-.24-1.17-.24"/>
        <polygon class="st1" points="89.98 79.7 89.98 84.12 88.97 84.12 88.97 79.7 87.43 79.7 87.43 78.79 91.57 78.79 91.57 79.7 89.98 79.7"/>
        <path class="st1" d="M92.26,84.12v-5.33h2.63c.65,0,1.1.11,1.35.34s.37.63.37,1.23c0,.53-.07.91-.19,1.1s-.38.34-.76.41v.03c.59.03.88.38.88,1.04v1.18h-1.01v-.97c0-.55-.27-.83-.81-.83h-1.46v1.8h-1.01.01ZM93.28,81.48h1.45c.35,0,.58-.07.69-.19s.17-.37.17-.74-.04-.62-.14-.73-.32-.16-.64-.16h-1.53v1.83h0Z"/>
        <path class="st1" d="M100.82,83.09h-2.3l-.33,1.03h-1.07l1.77-5.33h1.52l1.8,5.33h-1.05l-.34-1.03ZM100.59,82.35l-.92-2.77-.91,2.77h1.83-.01Z"/>
        <path class="st1" d="M106.81,80.34h-.99v-.11c-.02-.29-.09-.49-.2-.57s-.37-.12-.77-.12c-.48,0-.8.04-.94.13s-.22.27-.22.56c0,.34.05.53.17.6s.51.12,1.19.15c.8.04,1.31.15,1.54.34.23.19.35.56.35,1.13,0,.71-.14,1.17-.41,1.37s-.87.31-1.81.31c-.84,0-1.4-.1-1.67-.31s-.41-.61-.41-1.23v-.2h.98v.11c0,.37.07.6.2.69s.49.12,1.07.12c.46,0,.74-.04.86-.14.12-.1.19-.32.19-.67,0-.26-.04-.43-.14-.51s-.31-.13-.61-.15l-.56-.03c-.84-.05-1.38-.16-1.61-.35-.23-.19-.35-.58-.35-1.19s.14-1.04.43-1.24c.28-.21.85-.31,1.69-.31.8,0,1.34.1,1.62.28.28.19.41.56.41,1.11v.21h0Z"/>
        <path class="st1" d="M107.83,84.12v-5.33h2.41c.72,0,1.21.13,1.46.38.25.25.38.73.38,1.45s-.12,1.19-.36,1.42-.72.35-1.45.35h-1.42v1.72h-1.03ZM108.84,81.54h1.16c.46,0,.75-.05.87-.16s.19-.36.19-.75c0-.45-.05-.73-.15-.84s-.37-.16-.81-.16h-1.25v1.91h0Z"/>
        <path class="st1" d="M115.12,78.74c.97,0,1.59.16,1.86.48.28.32.41,1.04.41,2.16,0,1.22-.14,1.98-.41,2.31-.28.32-.96.48-2.03.48-.97,0-1.59-.15-1.88-.47s-.43-1-.43-2.07c0-1.27.14-2.07.41-2.39.28-.33.96-.49,2.05-.49M115.04,79.61c-.68,0-1.08.09-1.19.26-.12.17-.17.77-.17,1.81,0,.76.07,1.22.2,1.38.13.15.52.23,1.19.23s1-.09,1.12-.26.19-.71.19-1.6-.05-1.42-.17-1.58c-.12-.16-.5-.24-1.17-.24"/>
        <path class="st1" d="M118.27,84.12v-5.33h2.63c.65,0,1.1.11,1.35.34s.37.63.37,1.23c0,.53-.07.91-.19,1.1s-.38.34-.76.41v.03c.59.03.88.38.88,1.04v1.18h-1.01v-.97c0-.55-.27-.83-.81-.83h-1.46v1.8h-1.01.01ZM119.29,81.48h1.45c.35,0,.58-.07.69-.19s.17-.37.17-.74-.04-.62-.14-.73-.32-.16-.64-.16h-1.53v1.83h0Z"/>
        <polygon class="st1" points="125.73 79.7 125.73 84.12 124.72 84.12 124.72 79.7 123.18 79.7 123.18 78.79 127.32 78.79 127.32 79.7 125.73 79.7"/>
        <rect class="st1" x="128.02" y="78.79" width="1.01" height="5.33"/>
        <path class="st1" d="M33.31,58.89c-.64-.43-1.4-.65-2.19-.65h-7.76c-1.42,0-2.73.75-3.44,1.98l-3.88,6.73c-.71,1.23-.71,2.74,0,3.97l3.88,6.73c.35.6.84,1.09,1.41,1.43"/>
        <path class="st1" d="M33.31,65.04c.5.34.94.79,1.24,1.33l3.88,6.73c.71,1.23.71,2.74,0,3.97l-3.88,6.73c-.71,1.23-2.02,1.98-3.44,1.98h-7.76c-.73,0-1.43-.2-2.03-.56"/>
        <path class="st1" d="M20.7,59.24c.37-.29.94-.69,1.7-.91.45-.13,1.22-.12,2.77-.11.6,0,1.38.03,2.6,0,.23,0,1.84-.04,3.34,0,.09,0,.29,0,.57.04.47.07.82.21.96.26.19.08.41.19.67.35-.39.63-.79,1.27-1.17,1.9h-9.74c-2.02,3.57-4.02,7.13-6.04,10.7-.32-.44-.49-.84-.6-1.13-.08-.21-.21-.59-.25-1.11-.01-.2-.03-.57.05-1.04.05-.33.15-.61.24-.81.09-.17.17-.35.27-.52.29-.5.52-.91.68-1.17,0,0,2.27-4.01,3.22-5.57.05-.09.19-.29.39-.53.14-.16.27-.28.37-.37"/>
        <path class="st1" d="M21.31,85.23c.21.12.47.25.79.36.33.11.63.17.87.2h8.46c.2-.02.4-.07.64-.12.17-.04.34-.1.49-.15.19-.1.38-.19.57-.28l.37-.25c.11-.1.22-.21.33-.31.09-.09.19-.17.27-.26.17-.25.34-.49.51-.74l3.99-6.96.2-.55.15-.76v-1.04l-.26-.72c-.11-.23-.23-.46-.35-.7-.41-.81-.85-1.55-1.29-2.22-.8-1.38-1.59-2.76-2.39-4.14-.07-.13-.14-.26-.24-.41-.12-.17-.23-.32-.34-.45-.1-.11-.21-.22-.33-.33-.16-.14-.32-.26-.46-.35-.51.85-1.01,1.69-1.53,2.54,1.54,2.61,3.08,5.22,4.61,7.83l-4.37,7.67c-3.13-.02-6.27-.04-9.4-.07-.44.74-.87,1.48-1.3,2.21"/>
      </g>
    </g>
  </g>
</svg>