<?xml version="1.0" encoding="UTF-8"?>
<svg id="Livello_1" xmlns="http://www.w3.org/2000/svg" version="1.1" viewBox="0 0 24 24">
  <!-- Generator: Adobe Illustrator 29.8.1, SVG Export Plug-In . SVG Version: 2.1.1 Build 2)  -->
  <path d="M17,10h2c2,0,3-1,3-3v-2c0-2-1-3-3-3h-2c-2,0-3,1-3,3v2c0,2,1,3,3,3Z"/>
  <path d="M5,22h2c2,0,3-1,3-3v-2c0-2-1-3-3-3h-2c-2,0-3,1-3,3v2c0,2,1,3,3,3Z"/>
  <path d="M6,10c2.21,0,4-1.79,4-4S8.21,2,6,2,2,3.79,2,6s1.79,4,4,4Z"/>
  <path d="M18,22c2.21,0,4-1.79,4-4s-1.79-4-4-4-4,1.79-4,4,1.79,4,4,4Z"/>
</svg>