<?xml version="1.0" encoding="UTF-8"?>
<svg id="Livello_1" xmlns="http://www.w3.org/2000/svg" version="1.1" viewBox="0 0 24 24">
  <!-- Generator: Adobe Illustrator 29.8.1, SVG Export Plug-In . SVG Version: 2.1.1 Build 2)  -->
  <defs>
    <style>
      .st0 {
        fill: #1f1f1f;
      }

      .st1 {
        fill: #0c4c9a;
      }
    </style>
  </defs>
  <g>
    <path class="st0" d="M16.12.32c.96.16,1.65.86,1.73,1.85v12.75h.71c.28,0,.77.35.94.57.5.66.21,1.27.32,1.96.08.48.81.52.93.03l.02-8.39c-1.19-.05-1.89-.88-1.96-2.03-.02-.33-.04-1.35.08-1.61l1.65-1.72-1.57-1.58c-.4-.53.14-1.1.7-.7.35.25,1.57,1.49,1.85,1.84.08.1.18.22.2.35v13.91c-.36,1.79-2.76,1.66-2.92-.23-.07-.85.31-1.54-.96-1.44v3.92c.9-.03,1.73.67,1.91,1.54.07.37.12,1.71,0,2.03-.07.19-.19.26-.38.3H2.82c-.26.01-.49-.16-.52-.42-.06-.47-.04-1.79.12-2.21.26-.72,1.03-1.26,1.8-1.23V2.39c-.01-1,.71-1.96,1.73-2.07h10.17ZM5.22,19.8h11.61l.07-.07V2.21s-.09-.32-.12-.38c-.17-.36-.57-.54-.95-.55-3.32.05-6.66-.09-9.97.07-.23.04-.64.48-.64.68v17.77ZM20.77,8.12v-3.19c-.2.24-.78.65-.91.89-.04.08-.04.1-.05.18-.03.31-.03,1.27.07,1.53.15.38.51.54.89.59ZM18.81,22.72v-1.21c0-.3-.56-.79-.89-.75-4.66.04-9.34-.07-13.99.06-.26.03-.67.51-.67.74v1.16h15.56Z"/>
    <path class="st0" d="M5.22,19.8V2.03c0-.21.41-.65.64-.68,3.31-.16,6.65-.02,9.97-.07.38.02.78.19.95.55.03.06.12.34.12.38v17.52l-.07.07H5.22ZM6.53,2.29c-.25.1-.33.26-.35.51-.17,1.83.13,3.93,0,5.8.01.25.21.49.48.48l8.95-.04.27-.27V2.56c-.1-.15-.24-.29-.42-.28H6.53Z"/>
    <path class="st0" d="M18.81,22.72H3.26v-1.16c0-.24.41-.71.67-.74,4.65-.13,9.33-.02,13.99-.06.33-.04.89.45.89.75v1.21Z"/>
    <path class="st0" d="M20.77,8.12c-.38-.06-.74-.21-.89-.59-.1-.26-.1-1.22-.07-1.53,0-.08,0-.11.05-.18.14-.24.71-.64.91-.89v3.19Z"/>
    <path class="st0" d="M6.53,2.29h8.93c.18-.02.32.12.41.27v6.21s-.26.27-.26.27l-8.95.04c-.26,0-.46-.23-.48-.48.13-1.86-.17-3.96,0-5.8.02-.25.11-.42.35-.51ZM14.94,3.24h-7.8v4.88h7.8V3.24Z"/>
  </g>
  <path class="st1" d="M378.95-150.6c7.05,1.98,10.89,7.57,6.61,14.47l-49.92,50.43,16.76,54.09,2.17,1.57,53.04,16.31,49.56-49.29c15.59-8.22,15.94,8.05,15.37,19.11-3.45,67.51-66.02,109.32-130.61,93.12-2.47-.62-5.39-2.98-7.88-1.84l-161.7,173.68c-50.87,38.95-110.07-27.59-66.66-74.14L274.55-12.15c.97-2.12-2.34-9.68-3.02-12.69-12.35-54.95,19.14-107.49,72.98-122.4l19.47-3.36h14.97ZM124.72,197.2c17.28,17.28,43.15-9.4,25.85-26.22-17.12-16.65-42.72,9.35-25.85,26.22Z"/>
</svg>