<?xml version="1.0" encoding="UTF-8"?>
<svg id="Livello_1" xmlns="http://www.w3.org/2000/svg" version="1.1" viewBox="0 0 24 24">
  <!-- Generator: Adobe Illustrator 29.8.1, SVG Export Plug-In . SVG Version: 2.1.1 Build 2)  -->
  <defs>
    <style>
      .st0 {
        fill: #0c4c9a;
      }
    </style>
  </defs>
  <path class="st0" d="M20.83,8.01l-6.55-5.24c-1.28-1.02-3.28-1.03-4.55,0l-6.55,5.25c-.94.75-1.51,2.25-1.31,3.43l1.26,7.54c.29,1.69,1.86,3.02,3.57,3.02h10.6c1.69,0,3.29-1.36,3.58-3.03l1.26-7.54c.18-1.17-.39-2.67-1.31-3.42ZM12.75,18c0,.41-.34.75-.75.75s-.75-.34-.75-.75v-3c0-.41.34-.75.75-.75s.75.34.75.75v3Z"/>
</svg>