<?xml version="1.0" encoding="UTF-8"?>
<svg id="Livello_1" xmlns="http://www.w3.org/2000/svg" version="1.1" viewBox="0 0 24 24">
  <!-- Generator: Adobe Illustrator 29.8.1, SVG Export Plug-In . SVG Version: 2.1.1 Build 2)  -->
  <defs>
    <style>
      .st0 {
        fill: #1f1f1f;
      }
    </style>
  </defs>
  <path class="st0" d="M18.03.12c.44.12.67.47.41.9l-3.09,3.12,1.04,3.35.13.1,3.29,1.01,3.07-3.05c.97-.51.99.5.95,1.18-.21,4.18-4.09,6.77-8.09,5.77-.15-.04-.33-.18-.49-.11l-10.02,10.76c-3.15,2.41-6.82-1.71-4.13-4.59l10.46-9.85c.06-.13-.14-.6-.19-.79-.77-3.4,1.19-6.66,4.52-7.58l1.21-.21h.93ZM2.28,21.67c1.07,1.07,2.67-.58,1.6-1.62s-2.65.58-1.6,1.62Z"/>
</svg>